<svg width="79" height="38" viewBox="0 0 79 38" fill="none" xmlns="http://www.w3.org/2000/svg">
<path d="M31.0816 37.6694V20.1801H43.4532V24.0771H35.941V27.0819H42.4437V30.4389H35.941V33.749H43.6879V37.6694H31.0816ZM78.6429 37.6694V20.1801H73.5488V26.3542C70.2152 27.481 67.539 27.5045 67.3277 27.5045V20.1801H62.2336V37.6694H67.3277V31.4249H67.4686C67.3982 31.4484 70.7317 31.3075 73.5253 30.2511V37.6694H78.6429ZM5.09419 37.6694V31.6362H10.8457V27.9505H5.09419V24.4996H12.3246V20.2271H0V37.6694H5.09419ZM31.1989 17.95V14.0295H23.452V10.7195H29.9547V7.36251H23.452V4.35765H31.2928V0.46071H18.5926V17.95H31.1989ZM59.1113 17.9265V13.6539H52.1626V0.437233H47.0684V17.9265H59.1113ZM45.2842 17.9265V13.6539H38.3355V0.437233H33.2413V17.9265H45.2842ZM69.3466 4.28721C72.1402 4.26374 74.0652 6.42348 74.0183 9.19359C74.0183 10.1796 73.807 11.0482 73.4079 11.7759C71.835 14.8512 66.8348 14.8512 65.2854 11.7759C64.8863 11.0482 64.6985 10.1561 64.6985 9.19359C64.6515 6.42348 66.5531 4.26374 69.3466 4.28721ZM69.3466 18.396C74.7225 18.4664 79.089 14.7573 78.9716 9.19359C78.9716 7.3625 78.549 5.71922 77.7274 4.35765C74.3469 -1.4408 64.3229 -1.46428 60.9424 4.35765C60.1442 5.7427 59.7217 7.3625 59.7217 9.19359C59.6513 14.7573 63.9708 18.4664 69.3466 18.396ZM16.4094 17.9265V0.437233H11.3152V6.61129C7.98167 7.73811 5.30547 7.76159 5.09419 7.76159V0.437233H0V17.9265H5.09419V11.6585H5.23503C5.16461 11.682 8.49813 11.5411 11.2917 10.4847V17.903H16.4094V17.9265ZM52.8434 37.998C56.4821 38.0685 60.5903 36.2374 60.7076 32.27C60.7546 30.9319 60.4494 29.8755 59.8156 29.1243C59.1583 28.3731 58.3601 27.8331 57.4446 27.528C56.2238 27.0585 53.2424 26.5889 51.9278 26.2603C51.5053 26.1429 51.1296 25.9786 50.8479 25.7438C50.2611 25.3213 50.2376 24.3588 50.7306 23.8423C51.2236 23.3024 52.0687 23.1615 52.8434 23.185C54.2049 23.2319 55.3787 23.9127 55.6604 25.2508L59.3226 23.3024C58.6888 21.9173 57.5619 20.9548 56.1299 20.321C53.1016 19.0533 48.5004 19.3115 46.458 22.1286C45.2138 23.678 45.0495 26.8472 46.3406 28.2792C46.998 29.0304 47.7726 29.5703 48.6647 29.8755C49.8385 30.3685 52.8434 30.838 54.2049 31.2136C55.0031 31.4719 55.8717 31.8709 55.8247 32.81C55.7308 34.1715 53.9467 34.5237 52.7495 34.4532C51.4583 34.4063 50.2611 34.0072 49.5098 33.0447C49.2281 32.6926 49.0403 32.27 48.9464 31.824L44.9556 33.9368C46.2702 36.8477 49.6742 38.0215 52.8434 37.998ZM19.1091 28.2322H21.3392C21.8087 28.2322 22.2548 28.1383 22.6539 27.9505C23.9215 27.4106 24.4849 25.9786 23.6633 24.8283C23.1468 24.124 22.2313 23.7719 21.3392 23.7719H19.1091V28.2322ZM28.9453 37.9041C24.8371 37.9511 21.574 35.3218 20.095 31.5892H19.1091V37.7163H14.0149V20.2271H21.9731C24.4615 20.2271 26.8794 21.0018 28.241 22.9737C29.18 24.3353 29.4148 26.4481 28.7105 27.974C28.0767 29.3356 26.7151 30.1572 25.1188 30.7206C25.1188 30.7206 25.8465 32.4813 27.5368 33.1856C27.9828 33.3734 28.4993 33.4907 29.0392 33.5142V37.9276C28.9923 37.9041 28.9688 37.9041 28.9453 37.9041Z" fill="#44463E"/>
</svg>
